<svg xmlns="http://www.w3.org/2000/svg" width="151" height="151" fill="none" viewBox="0 0 151 151">
  <path fill="#282828" d="M67.68 149.9c-41.03-4.31-70.91-41.2-66.6-82.24 4.3-41.03 41.2-70.91 82.24-66.6a74.1 74.1 0 0 1 51.66 29.05 7.19 7.19 0 0 1-11.42 8.72 59.92 59.92 0 0 0-41.74-23.48 60.52 60.52 0 0 0-66.44 53.8 60.52 60.52 0 0 0 53.8 66.44 60.52 60.52 0 0 0 65.22-73.77 7.17 7.17 0 1 1 14-3.24 74.75 74.75 0 0 1 1.53 24.72c-4.31 41.03-41.2 70.9-82.24 66.6h-.01Z"/>
  <path fill="#282828" d="m68.97 61.82-1.54 9.66h-3.06l.57-3.56h-2.5l-.57 3.56h-3.06l1.52-9.66h3.07l-.55 3.48h2.5l.56-3.48h3.06Zm8.86 9.66H74.5l-.14-1.36h-2.62l-.57 1.36h-3.2l4.77-9.66h3.39l1.7 9.66Zm-3.72-3.8-.28-2.52-1.06 2.52h1.34Zm10.94 1.2-.4 2.6h-6.22l1.52-9.66h3.06l-1.12 7.05h3.16Zm8.44-7.06-.4 2.5h-3.42l-.24 1.47h3.23l-.4 2.5h-3.22l-.5 3.19h-3.06l1.53-9.66h6.48ZM66.31 84.87l-.41 2.6h-6.22l1.53-9.65h3.05l-1.12 7.05h3.17Zm10.41-3.2c0 3.48-2.44 5.97-5.92 5.97-2.5 0-4.34-1.4-4.34-4a5.72 5.72 0 0 1 5.92-5.98c2.5 0 4.34 1.4 4.34 4Zm-3.1.43c0-1.02-.61-1.75-1.66-1.75-1.47 0-2.37 1.36-2.37 2.73 0 1.02.6 1.75 1.66 1.75 1.47 0 2.36-1.36 2.36-2.73Zm9.78-.97a3.7 3.7 0 0 0-2.15-.92c-.2 0-.71.06-.71.38 0 .73 3.63.61 3.63 3.16 0 2.55-2.23 3.9-4.55 3.9a5.15 5.15 0 0 1-3.4-1.3l1.76-2.4A3.8 3.8 0 0 0 80.3 85c.21 0 .72-.06.72-.38 0-.84-3.6-.53-3.6-3.14 0-2.5 2.04-3.78 4.37-3.78 1 0 2.39.47 3.12 1.17l-1.51 2.26Zm7.6 0a3.7 3.7 0 0 0-2.14-.92c-.21 0-.72.06-.72.38 0 .73 3.63.61 3.63 3.16 0 2.55-2.23 3.9-4.55 3.9a5.15 5.15 0 0 1-3.39-1.3l1.75-2.4A3.8 3.8 0 0 0 87.9 85c.21 0 .72-.06.72-.38 0-.84-3.6-.53-3.6-3.14 0-2.5 2.04-3.78 4.37-3.78 1 0 2.4.47 3.12 1.17L91 81.13Z"/>
</svg>