<svg xmlns="http://www.w3.org/2000/svg" width="143" height="142" fill="none" viewBox="0 0 143 142">
  <g fill="#282828" clip-path="url(#a)">
    <path d="m116.02 75.08-1.2-4.77V55.94a9.82 9.82 0 0 0-9.81-9.78H91.36a9.68 9.68 0 0 0 1.36-4.9v-7.33a9.8 9.8 0 0 0-19.63 0v7.34c0 1.71.48 3.42 1.36 4.9H64.17c-.33 0-.64-.13-.88-.36l-.2-.2a1.2 1.2 0 0 1-.28-.44l-4.2-11.14a4.24 4.24 0 0 0 2.15-4.8l-.92-3.67a4.28 4.28 0 0 0-4.16-3.23h-.7l-3.74.2-.12.01a6.07 6.07 0 0 0-4.36 7.42l5.64 21.03a9.75 9.75 0 0 0 2.53 4.39l.13.13a9.84 9.84 0 0 0 6.92 2.87h9.26v11.76l-6.2 15.41a9.77 9.77 0 0 0-.19 6.72l3.9 11.65-.69.22a6.1 6.1 0 0 0-4.19 5.8v1.02c0 1.34 1.1 2.44 2.45 2.44h10.72a4.25 4.25 0 0 0 4.23-4.98l-3.14-18.7c-.04-.25 0-.51.12-.74l2.2-4.37v2.79c0 1.38.28 2.71.84 3.97L86.93 104l-.45.16a6.1 6.1 0 0 0-4.2 5.78v1.03c0 1.34 1.1 2.44 2.45 2.44h10.54a4.29 4.29 0 0 0 4.16-5.3l-4.88-19.45V58.4h4.91l3.34.04 1.55 12.04-1.16 4.62a4.28 4.28 0 0 0 4.17 5.3h4.49a4.29 4.29 0 0 0 4.16-5.3v-.01Zm-24.98 32.69a2.44 2.44 0 0 0 1.46-3.3l-6.73-15.09a4.76 4.76 0 0 1-.42-1.99v-5.78c0-1.34-1.1-2.44-2.45-2.44h-3.7c-.92 0-1.76.52-2.18 1.35l-3.13 6.27a6.04 6.04 0 0 0-.57 3.74l3 17.99h-5.97l2.27-.75a2.44 2.44 0 0 0 1.54-3.08L69.5 90.72c-.37-1.1-.33-2.3.1-3.37l5.75-14.31h14.32v15.9c0 .2.02.4.07.6l4.77 18.97h-5.74l2.27-.75Zm-14.9-39.6v-2.46h13.53v2.46H76.14Zm0-7.34v-2.46h13.53v2.46H76.14Zm10.45-22h-7.37c-.68 0-1.23-.56-1.23-1.23 0-.68.55-1.23 1.23-1.23h7.37c.68 0 1.23.55 1.23 1.23 0 .67-.55 1.23-1.23 1.23Zm0-7.34H79.2c-.2 0-.38.01-.57.03a4.88 4.88 0 0 1 8.53 0c-.2-.02-.38-.03-.58-.03ZM79.22 43.7h7.38l.57-.03a4.9 4.9 0 0 1-8.54 0l.59.03Zm17.81 7.34v2.46H70.62v-2.46h26.41Zm9.25.18-2.34 2.33c-.2-.03-.4-.05-.6-.05h-1.42v-2.46H105c.43 0 .87.07 1.28.18Zm1.25 5.64 2.21-2.2c.12.42.18.85.18 1.28v1.76l-2.2.55-.12-.91a4.3 4.3 0 0 0-.08-.47Zm1.7 14.34c.06-.3.08-.6.05-.9l-.12-.92h.77v1.23c0 .2.02.4.07.59l1.08 4.3h-2.94l1.08-4.3Zm.7-8.48v1.78h-1.4l-.18-1.38 1.57-.4Zm-44.2-11.68v2.46h-2.8l1.23-2.46h1.56Zm-6.07-1.97-1.37 2.74a4.85 4.85 0 0 1-1.16-2.08l-.2-.71 1.72-1.28c.26.48.6.91.98 1.3l.03.03Zm-3.7-8.22.83 2.2-1.21.9-.75-2.81 1.13-.28Zm-3.13-8.76c0 .3.05.58.15.85l1.25 3.31-.66.17-2.06-7.68c-.1-.37-.02-.77.21-1.07l.05-.05c.23-.27.57-.43.93-.43h2.5l.63 2.46h-.55a2.45 2.45 0 0 0-2.45 2.43ZM94.5 22.8a2.29 2.29 0 0 0 3.25 0l3.38-3.38c.89-.9.86-2.35-.05-3.23a2.3 2.3 0 0 0-3.2.01l-3.38 3.37c-.9.89-.9 2.34 0 3.23ZM89.36 21.78a2.3 2.3 0 0 0 2.3-2.28v-3.37a2.3 2.3 0 0 0-4.6 0v3.37a2.3 2.3 0 0 0 2.3 2.28ZM97.81 25.62a2.3 2.3 0 0 0-2.3 2.29 2.3 2.3 0 0 0 2.3 2.28h3.38a2.3 2.3 0 0 0 2.3-2.28 2.3 2.3 0 0 0-2.3-2.29h-3.38ZM47.65 57.77a3.13 3.13 0 0 0-2.9-3.06 7.37 7.37 0 0 1-6.53-5.24 3.14 3.14 0 0 0-3-2.25H13.3c-1.38 0-2.61.93-3 2.25a7.36 7.36 0 0 1-6.52 5.24 3.13 3.13 0 0 0-2.9 3.06c-.12 10.6 1.46 18.55 4.97 25.01 3.5 6.43 8.89 11.4 16.98 15.6a3.13 3.13 0 0 0 2.89 0c8.09-4.2 13.48-9.16 16.97-15.6 3.51-6.45 5.1-14.4 4.98-25Zm-14.54-4.33a13.64 13.64 0 0 0 8.3 6.94c-.3 15.96-5.2 25.03-17.15 31.72C12.3 85.4 7.4 76.35 7.1 60.38a13.64 13.64 0 0 0 8.3-6.94h17.7Z"/>
    <path d="m13.16 72.58 7.1 7.07a3.11 3.11 0 0 0 4.4 0L35.36 69l.22-.22.03-.07a3.1 3.1 0 0 0-.26-4.1 3.14 3.14 0 0 0-4.42 0l-8.47 8.44-4.9-4.89a3.12 3.12 0 0 0-4.4 4.42h.01ZM113.78 103.39c-4.2-.23-8.14.9-11.43 3l-7.11-8.64 3.9-10.57 3.25.18a2.3 2.3 0 1 0 .25-4.6l-9.88-.53a2.3 2.3 0 1 0-.25 4.6l1.8.09-3.5 9.5-17.03 2.89-.18-.07-15.48-6 6.72-17.56 7.37.4a2.3 2.3 0 1 0 .25-4.6l-18.6-1a2.3 2.3 0 1 0-.25 4.6l6.39.33-10.25 26.84a19.31 19.31 0 0 0-23.95 17.62 19.29 19.29 0 0 0 18.23 20.25 19.31 19.31 0 0 0 20.34-18.16 19.22 19.22 0 0 0-9.33-17.52l4.65 1.7 9.9 3.83 17 6.58a1.44 1.44 0 0 0 1.94-1.59c.06-.05.12-.1.17-.17l5.54 2.21a19.3 19.3 0 0 0 17.43 24.8 19.31 19.31 0 0 0 20.34-18.15 19.3 19.3 0 0 0-18.24-20.26ZM56.3 121.52a11.23 11.23 0 0 1-22.44-1.21 11.23 11.23 0 0 1 12.97-10.45l-3.9 10.24a2.3 2.3 0 0 0 2.03 3.11 2.3 2.3 0 0 0 2.28-1.48l3.9-10.23a11.16 11.16 0 0 1 5.16 10.02Zm31.44-16.8-5.58-2.17 6.81-1.16-1.23 3.32Zm8.38 8.07-5.61-2.23 2.88-7.8 5.4 6.55a19.4 19.4 0 0 0-2.67 3.49Zm7.85 2.8.4.5-.6-.25.2-.24Zm19.98 7.61a11.23 11.23 0 1 1-22.15-3.18l9.2 3.66a2.3 2.3 0 0 0 2.64-3.6l-6.1-7.4a11.22 11.22 0 0 1 16.4 10.53Z"/>
  </g>
  <defs>
    <clipPath id="a">
      <path fill="#fff" d="M.85.83h142v141H.85z"/>
    </clipPath>
  </defs>
</svg>