<svg xmlns="http://www.w3.org/2000/svg" width="151" height="97" fill="none" viewBox="0 0 151 97">
  <path fill="#282828" d="M49.12 11.6a3.26 3.26 0 0 0-3.02-3.2 7.66 7.66 0 0 1-6.78-5.46A3.26 3.26 0 0 0 36.2.6H13.39c-1.43 0-2.72.96-3.11 2.34A7.66 7.66 0 0 1 3.49 8.4c-1.68.12-3 1.52-3.03 3.2C.35 22.65 2 30.93 5.64 37.67c3.63 6.7 9.24 11.87 17.66 16.26a3.25 3.25 0 0 0 3 0c8.4-4.4 14.02-9.56 17.65-16.26 3.65-6.73 5.3-15.01 5.17-26.07ZM34 7.08a14.2 14.2 0 0 0 8.63 7.23c-.31 16.64-5.41 26.08-17.84 33.06C12.38 40.4 7.27 30.95 6.96 14.32a14.2 14.2 0 0 0 8.63-7.23h18.4Z"/>
  <path fill="#000" d="m13.26 27.03 7.37 7.37a3.24 3.24 0 0 0 4.59 0l11.1-11.1.23-.22.04-.08c.99-1.27.9-3.1-.28-4.27a3.26 3.26 0 0 0-4.58 0l-8.81 8.8-5.1-5.1a3.24 3.24 0 0 0-4.57 4.6Z"/>
  <path fill="#282828" d="M129.28 51.9a22.03 22.03 0 0 0-13.1 3.45l-8.14-9.91 4.47-12.14 3.72.2a2.64 2.64 0 1 0 .29-5.27l-11.32-.61a2.64 2.64 0 1 0-.29 5.27l2.07.11-4.02 10.9-19.5 3.33-.21-.09-4.59 12.33 19.47 7.55a1.65 1.65 0 0 0 2.22-1.82l.21-.2 6.34 2.54a22.13 22.13 0 1 0 43.27 7.63 22.13 22.13 0 0 0-20.9-23.26Zm-29.83 1.53-6.4-2.49 7.8-1.32-1.4 3.8Zm9.6 9.28-6.43-2.57 3.3-8.95 6.18 7.51a22.28 22.28 0 0 0-3.05 4.01Zm9 3.22.45.55-.68-.27.22-.28Zm9.33 20.86A12.87 12.87 0 0 1 115.56 71l10.54 4.21a2.64 2.64 0 0 0 3.03-4.12l-7-8.51a12.87 12.87 0 0 1 18.8 12.08 12.88 12.88 0 0 1-13.55 12.13Z"/>
  <path fill="#282828" d="m65.52 40.27 7.7-20.18 8.43.46a2.64 2.64 0 1 0 .3-5.27l-21.32-1.16a2.64 2.64 0 1 0-.29 5.27l7.33.4-11.75 30.8a22.14 22.14 0 0 0-27.44 20.23 22.13 22.13 0 0 0 44.2 2.41 22.08 22.08 0 0 0-10.7-20.12l5.33 1.96 11.35 4.4 4.58-12.33-17.72-6.87Zm-2.08 32.46a12.88 12.88 0 0 1-25.7-1.4 12.88 12.88 0 0 1 14.85-11.99L48.11 71.1a2.64 2.64 0 0 0 2.33 3.58c1.12.06 2.2-.6 2.62-1.7l4.47-11.74a12.83 12.83 0 0 1 5.9 11.5Z"/>
</svg>