<svg xmlns="http://www.w3.org/2000/svg" width="530" height="507" fill="none" viewBox="0 0 530 507">
  <g clip-path="url(#a)">
    <path fill="#F2EFE7" d="m244.4 141.06-1.88 5.09a21.08 21.08 0 0 1 6.92 28.92 20.94 20.94 0 0 1-28.84 6.95 21.08 21.08 0 0 1-6.92-28.93 20.95 20.95 0 0 1 17.44-10.03l1.93-5.3h-1.52a26.4 26.4 0 0 0-26.34 26.46 26.4 26.4 0 0 0 26.37 26.42 26.4 26.4 0 0 0 26.35-26.45c0-9.58-5.18-18.4-13.51-23.08v-.05Zm54.07-3.36h-1.52l1.99 5.36a21 21 0 0 1 20.52 21.47 21 21 0 0 1-21.4 20.58 21.06 21.06 0 0 1-10.51-38.97l-1.89-5.08a26.43 26.43 0 0 0-10.12 35.9 26.27 26.27 0 0 0 35.8 10.16 26.43 26.43 0 0 0 10.12-35.91 26.3 26.3 0 0 0-22.98-13.5h-.01Z"/>
    <path fill="#F2EFE7" d="M298.48 161.4a2.68 2.68 0 0 1-2.52-1.72l-14.53-39.19-14.02 28.64a2.67 2.67 0 0 1-4.81 0l-14.02-28.64-14.54 39.19a2.68 2.68 0 1 1-5.01-1.89l16.73-45.01a2.67 2.67 0 0 1 4.92-.26l14.33 29.38 14.33-29.38a2.66 2.66 0 0 1 4.92.27l16.74 45a2.68 2.68 0 0 1-2.52 3.63v-.01Z"/>
    <path stroke="#F2EFE7" stroke-linecap="round" stroke-linejoin="round" stroke-width="3.69" d="M1.47 390.81h527.06M1.47 505.52h527.06"/>
    <path fill="#F2EFE7" d="M87.57 453.2c-5.68 0-9.05-3.2-10-4.59l2.93-3.82c1.11 1.36 4.05 3.43 6.7 3.43 2.66 0 4.8-1.4 4.8-3.86s-1.9-3.7-4.36-3.7H85.2v-4.5h2.43c2.14 0 3.65-1.08 3.65-3.23s-1.79-3.22-3.97-3.22c-2.19 0-4.33.87-6.55 2.66l-2.39-4.06c1.9-1.67 4.45-3.43 9.45-3.43 5 0 9.53 2.7 9.53 7.33a6 6 0 0 1-3.93 6.01v.12c2.3.6 4.8 2.79 4.8 6.37 0 5.5-5.04 8.48-10.67 8.48ZM40.42 468.54h-1.26v3.66h-3.84v-11.77h5.1c2.66 0 4.6 1.2 4.6 4.06 0 2.87-1.96 4.05-4.6 4.05Zm-.65-5.2h-.63v2.3h.63c.8 0 1.36-.24 1.36-1.14 0-.9-.58-1.16-1.36-1.16ZM55.73 472.2l-.46-1.65h-3.35l-.44 1.65h-4l4.08-11.77h4.25l4.08 11.77h-4.17Zm-2.13-7.75-.86 3.15h1.73l-.86-3.16h-.01ZM68.9 472.4c-3.49 0-6.29-2.14-6.29-6.07 0-3.92 2.81-6.07 6.3-6.07 2.62 0 3.9 1.1 3.9 1.1l-1.01 3.25s-1.2-1.03-2.63-1.03c-1.44 0-2.7.85-2.7 2.7 0 1.84 1.34 2.64 2.7 2.64s2.3-.57 2.8-1.08l1.1 3.07c-.42.43-1.6 1.49-4.16 1.49ZM82.93 472.2l-1.95-3.92-.68.85v3.07h-3.82v-11.77h3.82v3.58l2.47-3.58h4.5l-3.8 4.75 4.06 7.02h-4.6ZM97.81 472.2l-.45-1.65H94l-.44 1.65h-4l4.08-11.77h4.24l4.08 11.77h-4.16Zm-2.12-7.75-.87 3.15h1.74l-.87-3.16ZM110.92 472.39c-3.15 0-6.21-1.9-6.21-6.07 0-4.19 3.06-6.06 6.29-6.06 3.22 0 4.59 1.7 4.93 2.04l-2.56 2.14a3.25 3.25 0 0 0-2.38-1.03c-1.36 0-2.43 1.03-2.43 2.9 0 1.87 1.07 2.9 2.43 2.9s1.62-.43 1.62-.43v-.85h-1.79v-2.85h5.53v5.15c-.94.85-2.3 2.15-5.44 2.15ZM120.36 472.2v-11.77h8.33v3.04h-4.5v1.27h4.25v3.02h-4.25v1.36h4.68v3.08h-8.51ZM139.91 471.4c-.94.72-2.11 1-3.47 1a7.39 7.39 0 0 1-4.52-1.57l1.7-2.9a5.87 5.87 0 0 0 3.13 1.28c.51 0 .86-.15.86-.5 0-.34-.42-.48-.84-.61-.43-.12-1.36-.43-1.7-.55-1.64-.65-2.7-1.41-2.7-3.38 0-1.27.67-2.27 1.36-2.85a5.39 5.39 0 0 1 3.45-1.02c1.56 0 3.16.56 4.19 1.4l-1.47 2.74a4.84 4.84 0 0 0-2.79-1.13c-.62 0-.95.12-.95.49 0 .33.54.45.81.54.28.09.99.29 1.4.43 1.76.59 3.06 1.48 3.06 3.54 0 1.23-.6 2.34-1.53 3.08l.01.01Z"/>
    <path stroke="#F2EFE7" stroke-linecap="round" stroke-linejoin="round" stroke-width="3.69" d="M177.16 406.93v82.47M368.84 406.93v82.47"/>
    <path fill="#F2EFE7" d="M399.07 453.81c-3.5 0-6.3-2.15-6.3-6.07 0-3.93 2.82-6.08 6.3-6.08 2.63 0 3.9 1.11 3.9 1.11l-1.02 3.24s-1.19-1.02-2.63-1.02-2.69.85-2.69 2.7c0 1.84 1.33 2.63 2.7 2.63 1.35 0 2.29-.56 2.8-1.07l1.1 3.07c-.42.43-1.61 1.48-4.16 1.48v.01ZM412.5 453.81c-3.66 0-6.38-2.23-6.38-6.07 0-3.85 2.72-6.1 6.38-6.1 3.65 0 6.37 2.26 6.37 6.1 0 3.83-2.72 6.07-6.37 6.07Zm0-8.9c-1.53 0-2.52 1.13-2.52 2.75s.98 2.74 2.52 2.74c1.53 0 2.5-1.12 2.5-2.74s-.97-2.75-2.5-2.75ZM429.76 453.61h-3.74l-4.43-11.77h4.08l2.21 6.82 2.21-6.82h4.08l-4.42 11.77h.01ZM437.42 453.61v-11.77h8.33v3.03h-4.5v1.28h4.25v3.02h-4.25v1.36h4.67v3.07h-8.5v.01ZM456.04 453.61l-1.87-3.92h-.5v3.92h-3.84v-11.77h5.1c1.45 0 2.56.26 3.4.85.86.6 1.46 1.62 1.46 2.9 0 2.39-1.45 3.24-1.96 3.54l2.63 4.47h-4.42v.01Zm-.56-8.65c-.17-.13-.42-.22-.85-.22h-.96v2.04h.96c.67 0 1.27-.25 1.27-1.02 0-.52-.25-.69-.42-.8ZM470.83 453.61l-.45-1.65h-3.36l-.44 1.65h-4l4.09-11.77h4.24l4.08 11.77h-4.17.01Zm-2.13-7.76-.86 3.16h1.74l-.87-3.16ZM483.93 453.8c-3.14 0-6.2-1.9-6.2-6.08s3.06-6.06 6.28-6.06 4.6 1.71 4.93 2.05l-2.56 2.13a3.25 3.25 0 0 0-2.38-1.02c-1.36 0-2.43 1.02-2.43 2.9 0 1.86 1.07 2.9 2.43 2.9s1.62-.44 1.62-.44v-.85h-1.79v-2.84h5.53v5.15c-.94.85-2.3 2.15-5.44 2.15ZM493.37 453.61v-11.77h8.33v3.03h-4.5v1.28h4.25v3.02h-4.25v1.36h4.68v3.07h-8.5l-.01.01ZM237.15 418.8v8.76h-3.84v-8.76h-2.75v-3h9.36v3H237.15ZM248.34 427.77c-3.66 0-6.38-2.23-6.38-6.07 0-3.85 2.72-6.1 6.38-6.1 3.66 0 6.38 2.26 6.38 6.1 0 3.83-2.72 6.07-6.38 6.07Zm0-8.9c-1.53 0-2.52 1.13-2.52 2.75s.98 2.74 2.52 2.74 2.5-1.12 2.5-2.74-.97-2.75-2.5-2.75ZM263.36 418.8v8.76h-3.84v-8.76h-2.76v-3h9.37v3h-2.77ZM275.9 427.57l-.45-1.65h-3.35l-.44 1.65h-4l4.08-11.77h4.25l4.08 11.77h-4.17Zm-2.12-7.76-.86 3.15h1.73l-.86-3.15h-.01ZM282.46 427.57V415.8h3.82v8.61h4v3.15h-7.82v.01ZM298.02 427.57V415.8h3.82v8.61h4v3.15H298v.01ZM314.43 427.77c-3.66 0-6.38-2.23-6.38-6.07 0-3.85 2.72-6.1 6.38-6.1 3.65 0 6.37 2.26 6.37 6.1 0 3.83-2.72 6.07-6.37 6.07Zm0-8.9c-1.53 0-2.52 1.13-2.52 2.75s.98 2.74 2.52 2.74c1.53 0 2.5-1.12 2.5-2.74s-.98-2.75-2.5-2.75ZM330.84 426.77c-.93.71-2.1 1-3.47 1a7.38 7.38 0 0 1-4.52-1.57l1.7-2.9a5.88 5.88 0 0 0 3.13 1.28c.5 0 .86-.15.86-.5 0-.34-.43-.47-.85-.62-.42-.12-1.36-.42-1.7-.54-1.63-.65-2.7-1.42-2.7-3.38 0-1.28.67-2.27 1.37-2.85a5.39 5.39 0 0 1 3.45-1.03c1.57 0 3.16.56 4.19 1.41l-1.47 2.73a4.84 4.84 0 0 0-2.79-1.12c-.61 0-.95.12-.95.48s.55.46.82.55l1.39.42c1.77.6 3.06 1.49 3.06 3.55 0 1.23-.59 2.33-1.53 3.07l.01.02ZM342.24 426.77c-.94.71-2.12 1-3.48 1a7.38 7.38 0 0 1-4.52-1.57l1.7-2.9a5.88 5.88 0 0 0 3.13 1.28c.5 0 .86-.15.86-.5 0-.34-.42-.47-.85-.62-.42-.12-1.36-.42-1.7-.54-1.63-.65-2.69-1.42-2.69-3.38 0-1.28.67-2.27 1.36-2.85a5.39 5.39 0 0 1 3.46-1.03c1.56 0 3.16.56 4.18 1.41l-1.46 2.73a4.84 4.84 0 0 0-2.8-1.12c-.61 0-.95.12-.95.48s.55.46.82.55l1.4.42c1.76.6 3.06 1.49 3.06 3.55 0 1.23-.6 2.33-1.53 3.07v.02ZM238.44 453.72v-4.35h-3.2v4.35h-3.84v-11.77h3.84v4.26h3.2v-4.26h3.84v11.77h-3.84ZM252.92 453.72l-.46-1.65h-3.35l-.44 1.65h-4l4.08-11.77H253l4.08 11.77h-4.17Zm-2.13-7.76-.87 3.16h1.74l-.86-3.16h-.01ZM259.47 453.72v-11.77h3.82v8.61h4v3.16h-7.82ZM273.84 445v1.81h4.08v3.04h-4.08v3.87H270v-11.77h8.16V445h-4.33ZM286.08 453.72v-11.77h3.83v8.61h3.99v3.16h-7.82ZM302.5 453.93c-3.67 0-6.38-2.23-6.38-6.07 0-3.85 2.71-6.1 6.37-6.1s6.38 2.26 6.38 6.1c0 3.83-2.72 6.07-6.38 6.07Zm0-8.9c-1.54 0-2.53 1.13-2.53 2.75s.98 2.74 2.52 2.74 2.5-1.12 2.5-2.74-.97-2.75-2.5-2.75ZM318.9 452.92c-.93.72-2.1 1-3.46 1a7.38 7.38 0 0 1-4.52-1.57l1.7-2.9a5.87 5.87 0 0 0 3.12 1.28c.51 0 .86-.15.86-.5 0-.34-.42-.47-.85-.62-.42-.12-1.36-.42-1.7-.54-1.63-.65-2.69-1.41-2.69-3.38 0-1.27.67-2.27 1.36-2.85a5.39 5.39 0 0 1 3.46-1.02 6.8 6.8 0 0 1 4.18 1.4l-1.46 2.74a4.84 4.84 0 0 0-2.8-1.13c-.6 0-.95.12-.95.48 0 .37.55.46.82.55.27.09.98.29 1.4.43 1.76.59 3.06 1.48 3.06 3.54 0 1.23-.6 2.34-1.53 3.08v.01ZM330.3 452.92c-.94.72-2.11 1-3.47 1a7.38 7.38 0 0 1-4.52-1.57l1.7-2.9a5.87 5.87 0 0 0 3.12 1.28c.51 0 .87-.15.87-.5 0-.34-.43-.47-.85-.62-.43-.12-1.36-.42-1.7-.54-1.64-.65-2.7-1.41-2.7-3.38 0-1.27.67-2.27 1.37-2.85a5.39 5.39 0 0 1 3.45-1.02 6.8 6.8 0 0 1 4.19 1.4l-1.47 2.74a4.84 4.84 0 0 0-2.8-1.13c-.6 0-.94.12-.94.48 0 .37.54.46.81.55.27.09.99.29 1.4.43 1.76.59 3.06 1.48 3.06 3.54 0 1.23-.6 2.34-1.53 3.08v.01ZM237.15 471.12v8.77h-3.84v-8.77h-2.75v-3h9.36v3H237.15ZM249.52 479.88v-4.34h-3.2v4.34h-3.84v-11.77h3.84v4.26h3.2v-4.26h3.84v11.77h-3.84ZM256.76 479.88v-11.77h8.34v3.04h-4.5v1.27h4.24v3.02h-4.24v1.36h4.68v3.08h-8.52ZM272.16 471.15v1.83h4.08V476h-4.08v3.88h-3.83V468.1h8.16v3.04h-4.33ZM285.13 471.12v8.77h-3.84v-8.77h-2.75v-3h9.37v3h-2.77Z"/>
    <path stroke="#F2EFE7" stroke-linecap="round" stroke-miterlimit="10" stroke-width="3.69" d="M216.54 424.57v1.5a3.18 3.18 0 0 1-3.17 3.2h-9.84a3.18 3.18 0 0 1-3.17-3.2v-9.85a3.18 3.18 0 0 1 3.17-3.19h9.84a3.18 3.18 0 0 1 3.17 3.19v.7"/>
    <path stroke="#F2EFE7" stroke-linecap="round" stroke-linejoin="round" stroke-width="3.69" d="m205.86 418.88 3.46 4.01 11.04-8.45"/>
    <path stroke="#F2EFE7" stroke-linecap="round" stroke-miterlimit="10" stroke-width="3.69" d="M216.54 451.04v1.51a3.18 3.18 0 0 1-3.17 3.19h-9.84a3.18 3.18 0 0 1-3.17-3.19v-9.86a3.18 3.18 0 0 1 3.17-3.19h9.84a3.18 3.18 0 0 1 3.17 3.19v.7"/>
    <path stroke="#F2EFE7" stroke-linecap="round" stroke-linejoin="round" stroke-width="3.69" d="m205.86 445.36 3.46 4.01 11.04-8.45"/>
    <path stroke="#F2EFE7" stroke-linecap="round" stroke-miterlimit="10" stroke-width="3.69" d="M216.54 477.52v1.51a3.18 3.18 0 0 1-3.17 3.19h-9.84a3.18 3.18 0 0 1-3.17-3.19v-9.86a3.18 3.18 0 0 1 3.17-3.18h9.84a3.18 3.18 0 0 1 3.17 3.18v.7"/>
    <path stroke="#F2EFE7" stroke-linecap="round" stroke-linejoin="round" stroke-width="3.69" d="m205.86 471.84 3.46 4 11.04-8.45"/>
    <path fill="#F2EFE7" d="M120.73 99.77 95.37 75.72l7.86-8.33 25.36 24.05-7.86 8.33ZM154.75 69.53l-20.09-9.45s2.45 2.91 3.95 4.96l7.78 10.63-8.97 6.6-20.65-28.22 9.99-7.35 19.68 9.74s-2.45-2.92-3.95-4.96l-7.78-10.63 8.97-6.6 20.65 28.21-9.58 7.06ZM191.92 46.46c-1.64 3.1-4.45 5.36-8.13 7.05-3.68 1.7-8.37 2.63-14.17 1.4l1-9.96c4.08 1.14 8.66.2 10.04-.45 1.38-.63 2.15-1.5 1.73-2.42-.42-.92-1.74-.76-3.06-.6-1.3.2-4.2.55-5.27.65-5.22.29-9.01-.47-11.45-5.78a11.1 11.1 0 0 1 .15-9.4c1.19-2.5 3.83-5.11 8.05-7.07 4.23-1.95 9.25-2.43 13.07-1.4l-.57 9.2a14.36 14.36 0 0 0-8.94.45c-1.65.76-2.42 1.5-1.98 2.48.42.92 2.04.56 2.88.45.84-.1 3.02-.45 4.3-.58 5.52-.6 10.1.19 12.67 5.77a11.66 11.66 0 0 1-.33 10.2v.01ZM229.34 34.22c-1.85 3.07-5.4 5.57-10.8 6.92-5.4 1.35-9.7.8-12.77-1.05-3.06-1.85-5.09-4.75-6.42-10.17l-4.82-19.46 11.15-2.77 4.93 19.95c.72 2.9 2.4 4.63 5.55 3.85 3.14-.78 3.77-3.08 3.05-5.99l-4.93-19.95 11.19-2.78 4.81 19.45c1.35 5.42.9 8.92-.94 12ZM261.48 34.88l-6.04-11.44-1.46.06.47 11.66-11.42.46L241.62.64l15.16-.62c4.3-.17 7.62.45 10.2 2.13a10.32 10.32 0 0 1 4.65 8.44c.29 7.1-3.9 9.8-5.39 10.78l8.37 12.97-13.14.53Zm-2.7-25.64c-.53-.39-1.3-.61-2.56-.56l-2.88.12.25 6.09 2.88-.12c1.97-.08 3.76-.92 3.66-3.2-.06-1.52-.84-2-1.36-2.33ZM302.05 38.33l-.57-5.08-9.84-1.58-2.08 4.65-11.73-1.9L295.36 1.8l12.5 2.01 6.43 36.5-12.24-1.97Zm-2.58-23.8-4.04 8.85 5.1.83-1.06-9.68ZM342.17 50.84l-2.52-22.1s-1.2 3.62-2.14 5.97l-4.95 12.22-10.3-4.2 13.11-32.44 11.49 4.67 2.06 21.91s1.19-3.62 2.14-5.97L356 18.68l10.31 4.2-13.12 32.44-11.01-4.48ZM374.55 69.64c-8.64-5.76-12.07-15.71-5.64-25.44 6.43-9.73 16.9-10.42 25.55-4.67 6.53 4.35 7.88 9.2 7.88 9.2l-7.84 6.35s-1.27-4.5-4.86-6.88c-3.58-2.39-8.05-2.32-11.08 2.24-2.99 4.53-1.05 8.75 2.33 10.99 3.38 2.25 6.62 2.39 8.72 1.97l-2.3 9.43c-1.75.36-6.44 1.01-12.76-3.2ZM391.27 81.39l24.36-25.08 17.76 17.35-6.28 6.47-9.6-9.38-2.65 2.72 9.05 8.86-6.24 6.43-9.06-8.85-2.82 2.9 9.96 9.75-6.35 6.54-18.12-17.71Z"/>
  </g>
  <g fill="#F2EFE7" clip-path="url(#b)">
    <path d="M252.75 254.27h-6.23l-.44 2.66h5.88l-.73 4.54h-5.85l-.91 5.75h-5.55l2.76-17.49h11.78l-.7 4.54h-.01ZM262.14 267.52c-4.53 0-7.9-2.53-7.9-7.25 0-6.3 4.46-10.82 10.77-10.82 4.55 0 7.89 2.54 7.89 7.25 0 6.3-4.43 10.82-10.76 10.82Zm2.11-13.2c-2.67 0-4.3 2.45-4.3 4.94 0 1.85 1.1 3.17 3 3.17 2.67 0 4.3-2.46 4.3-4.94 0-1.86-1.1-3.17-3-3.17ZM287.09 260.58l2.74 6.64h-6.41l-1.75-5.8h-.7l-.9 5.8h-5.58l2.78-17.48h7.36c3.1 0 6.18.98 6.18 4.64a7.03 7.03 0 0 1-3.72 6.2Zm-3.59-6.52h-1.37l-.49 2.99h1.45c1.1 0 2.01-.64 2.01-1.8 0-.89-.83-1.19-1.6-1.19ZM186.43 298.18h-5.47l1.37-9.8-3.72 9.8h-4.8l-.59-9.8-1.75 9.8H166l3.76-17.48h7.13l.61 9.4 3.62-9.4h7.12l-1.8 17.48h-.01ZM200.22 298.18l-.26-2.45h-4.75l-1.05 2.45h-5.8l8.65-17.48h6.16l3.1 17.48h-6.06ZM199 286.76l-1.94 4.56h2.44l-.5-4.56ZM222.96 285.18h-3.97l-2.06 13h-5.57l2.06-13h-3.97l.71-4.48h13.5l-.7 4.48ZM237.53 285.24h-6.46l-.3 1.85h6.1l-.7 4.54h-6.11l-.3 1.98h6.71l-.73 4.58h-12.26l2.77-17.48h12.03l-.73 4.54-.02-.01ZM242.06 298.46c-1.42 0-2.62-.66-2.62-2.2 0-2.05 1.52-3.3 3.51-3.3 1.4 0 2.62.66 2.62 2.2 0 2.05-1.53 3.3-3.51 3.3ZM257.33 298.48c-4.53 0-7.9-2.53-7.9-7.24 0-6.31 4.46-10.82 10.77-10.82 4.55 0 7.89 2.53 7.89 7.24 0 6.31-4.43 10.82-10.76 10.82Zm2.11-13.2c-2.67 0-4.3 2.45-4.3 4.94 0 1.85 1.1 3.17 3 3.17 2.67 0 4.3-2.45 4.3-4.94 0-1.85-1.1-3.17-3-3.17ZM288.8 298.18h-5.68l-.68-9.78-3.8 9.78H273l-2-17.48h5.8l.52 9.63 3.6-9.63h5.51l.54 9.63 3.59-9.63h5.8l-7.56 17.48ZM312.18 298.18h-5.8l-3.53-9.63c-.34 3.22-.92 6.41-1.43 9.63H296l2.78-17.48h6.03l3.3 9.63c.31-3.22.93-6.41 1.44-9.63h5.41l-2.77 17.48h-.01ZM330.09 285.24h-6.46l-.3 1.85h6.1l-.71 4.54h-6.1l-.31 1.98h6.72l-.74 4.58h-12.26l2.78-17.48h12.03l-.74 4.54-.01-.01ZM344.18 291.55l2.74 6.64h-6.41l-1.76-5.8h-.69l-.91 5.8h-5.57l2.78-17.48h7.35c3.1 0 6.18.99 6.18 4.64a7.03 7.03 0 0 1-3.71 6.2Zm-3.6-6.52h-1.37l-.48 2.99h1.45c1.1 0 2.01-.64 2.01-1.8 0-.89-.84-1.19-1.6-1.19ZM357.36 285.03c-.39 0-1.3.1-1.3.69 0 1.31 6.58 1.1 6.58 5.72 0 4.62-4.04 7.05-8.26 7.05a9.35 9.35 0 0 1-6.16-2.36l3.18-4.33c.92.96 2.85 1.9 4.22 1.9.39 0 1.3-.1 1.3-.68 0-1.52-6.54-.96-6.54-5.68 0-4.7 3.72-6.84 7.94-6.84 1.83 0 4.35.84 5.67 2.1l-2.74 4.12c-.97-.84-2.57-1.67-3.9-1.67v-.02ZM237.6 329.45c-4.53 0-7.9-2.53-7.9-7.24 0-6.31 4.46-10.82 10.77-10.82 4.55 0 7.89 2.53 7.89 7.24 0 6.31-4.43 10.82-10.76 10.82Zm2.11-13.2c-2.67 0-4.3 2.45-4.3 4.94 0 1.85 1.1 3.17 3 3.17 2.67 0 4.3-2.45 4.3-4.94 0-1.85-1.1-3.17-3-3.17ZM266.14 329.15h-5.8l-3.53-9.63c-.33 3.22-.92 6.41-1.43 9.63h-5.42l2.78-17.48h6.03l3.31 9.63c.3-3.22.92-6.41 1.43-9.63h5.42l-2.78 17.48ZM281.28 329.15h-11.3l2.78-17.48h5.55l-2.04 12.77h5.75l-.73 4.71ZM294.87 322.31l-1.07 6.84h-5.57l1.1-6.84-4.2-10.64h6.18l1.56 5.83 3.4-5.83h6.18l-7.57 10.64h-.01Z"/>
  </g>
  <defs>
    <clipPath id="a">
      <path fill="#F2EFE7" d="M0 0h530v507H0z"/>
    </clipPath>
    <clipPath id="b">
      <path fill="#F2EFE7" d="M166 249.45h198v80H166z"/>
    </clipPath>
  </defs>
</svg>