<svg xmlns="http://www.w3.org/2000/svg" width="151" height="151" fill="none" viewBox="0 0 151 151">
  <path fill="#282828" d="M67.7 149.9c-41.03-4.31-70.9-41.2-66.6-82.24C5.41 26.63 42.31-3.25 83.34 1.06A74.1 74.1 0 0 1 135 30.1a7.19 7.19 0 0 1-11.42 8.72 59.92 59.92 0 0 0-41.74-23.48 60.52 60.52 0 0 0-66.44 53.8 60.52 60.52 0 0 0 53.81 66.44 60.52 60.52 0 0 0 65.21-73.77 7.17 7.17 0 1 1 14-3.24 74.75 74.75 0 0 1 1.53 24.72c-4.3 41.03-41.2 70.9-82.24 66.6Z"/>
  <path fill="#282828" d="m64.03 69.82-.4 2.47h-2.18l-1.13 7.19h-3.07l1.13-7.19H56.2l.4-2.47h7.43Zm9.3 0-1.53 9.66h-3.07l.58-3.56h-2.5l-.57 3.56h-3.06l1.52-9.66h3.07l-.55 3.48h2.5l.55-3.48h3.07Zm8.04 0-.4 2.5H77.4l-.17 1.02h3.36l-.39 2.5h-3.36l-.17 1.1h3.7l-.4 2.54h-6.76l1.53-9.66h6.62Zm7.72 0-.39 2.5h-3.43l-.24 1.47h3.24l-.4 2.5h-3.23l-.5 3.19h-3.05l1.52-9.66h6.48Zm7.79 0-.4 2.47H94.3l-1.13 7.19H90.1l1.14-7.19h-2.19l.4-2.47h7.43Z"/>
</svg>