<svg xmlns="http://www.w3.org/2000/svg" width="528" height="504" fill="none" viewBox="0 0 528 504">
  <g clip-path="url(#a)">
    <path fill="#F2EFE7" d="M252 252.76h-6.22l-.43 2.67h5.86l-.74 4.53h-5.83l-.9 5.76h-5.53l2.76-17.49h11.74l-.71 4.54Z"/>
    <path fill="#F2EFE7" d="M261.36 266.02c-4.52 0-7.87-2.53-7.87-7.25 0-6.3 4.44-10.82 10.72-10.82 4.55 0 7.87 2.53 7.87 7.25 0 6.32-4.41 10.82-10.73 10.82Zm2.1-13.2c-2.66 0-4.28 2.45-4.28 4.94 0 1.85 1.09 3.17 3 3.17 2.65 0 4.27-2.47 4.27-4.95 0-1.85-1.08-3.16-3-3.16Z"/>
    <path fill="#F2EFE7" d="m286.22 259.08 2.74 6.64h-6.38l-1.75-5.8h-.7l-.9 5.8h-5.56l2.77-17.49h7.33c3.09 0 6.16.99 6.16 4.65a7.05 7.05 0 0 1-3.7 6.2Zm-3.57-6.51h-1.37l-.48 3h1.44c1.1 0 2-.64 2-1.81 0-.88-.84-1.2-1.6-1.2h.01Z"/>
    <path fill="#F2EFE7" d="M193.54 296.7h-5.45l1.37-9.8-3.7 9.8h-4.8l-.58-9.8-1.75 9.8h-5.45l3.75-17.48h7.1l.6 9.4 3.6-9.4h7.1l-1.8 17.49h.01Z"/>
    <path fill="#F2EFE7" d="m207.28 296.7-.25-2.45h-4.74l-1.04 2.46h-5.79l8.62-17.5h6.14l3.09 17.5h-6.03Zm-1.22-11.42-1.93 4.56h2.44l-.5-4.56Z"/>
    <path fill="#F2EFE7" d="M229.95 283.7h-3.96l-2.05 13h-5.56l2.06-13h-3.96l.71-4.48h13.46l-.71 4.48Z"/>
    <path fill="#F2EFE7" d="M244.48 283.75h-6.44l-.3 1.85h6.09l-.72 4.54h-6.08l-.3 1.98h6.7l-.74 4.59h-12.23l2.77-17.5h11.99l-.74 4.55v-.01Z"/>
    <path fill="#F2EFE7" d="M249 296.98c-1.42 0-2.62-.66-2.62-2.2 0-2.05 1.53-3.3 3.5-3.3 1.4 0 2.62.66 2.62 2.2 0 2.06-1.52 3.3-3.5 3.3Z"/>
    <path fill="#F2EFE7" d="M264.2 297c-4.5 0-7.86-2.52-7.86-7.24 0-6.31 4.44-10.83 10.73-10.83 4.54 0 7.86 2.53 7.86 7.25 0 6.32-4.42 10.83-10.73 10.83Zm2.1-13.2c-2.65 0-4.27 2.45-4.27 4.94 0 1.86 1.09 3.17 3 3.17 2.65 0 4.28-2.46 4.28-4.94 0-1.86-1.1-3.17-3-3.17Z"/>
    <path fill="#F2EFE7" d="M295.57 296.7h-5.65l-.7-9.78-3.77 9.79h-5.63l-2-17.5h5.79l.53 9.64 3.58-9.63h5.5l.53 9.63 3.58-9.63h5.78l-7.53 17.49Z"/>
    <path fill="#F2EFE7" d="M318.87 296.7h-5.78l-3.52-9.63c-.33 3.22-.92 6.41-1.42 9.64h-5.4l2.76-17.5h6.01l3.3 9.64c.3-3.22.9-6.42 1.42-9.63h5.4l-2.77 17.49Z"/>
    <path fill="#F2EFE7" d="M336.73 283.75h-6.44l-.3 1.85h6.08l-.71 4.54h-6.09l-.3 1.98h6.7l-.74 4.59h-12.22l2.76-17.5h12l-.75 4.55v-.01Z"/>
    <path fill="#F2EFE7" d="m350.77 290.06 2.74 6.65h-6.39l-1.75-5.81h-.69l-.9 5.8h-5.56l2.76-17.48h7.33c3.1 0 6.17.98 6.17 4.64a7.05 7.05 0 0 1-3.7 6.21h-.01Zm-3.57-6.51h-1.38l-.48 3h1.45c1.09 0 2-.64 2-1.8 0-.9-.85-1.2-1.6-1.2Z"/>
    <path fill="#F2EFE7" d="M236.9 328c-4.52 0-7.86-2.54-7.86-7.26 0-6.3 4.44-10.82 10.72-10.82 4.54 0 7.86 2.53 7.86 7.25 0 6.3-4.41 10.82-10.73 10.82h.01Zm2.1-13.22c-2.66 0-4.28 2.47-4.28 4.95 0 1.85 1.09 3.16 3 3.16 2.66 0 4.28-2.45 4.28-4.94 0-1.85-1.1-3.17-3-3.17Z"/>
    <path fill="#F2EFE7" d="M265.35 327.7h-5.78l-3.53-9.64c-.32 3.22-.9 6.41-1.41 9.63h-5.4l2.76-17.49H258l3.3 9.64c.3-3.22.9-6.41 1.41-9.64h5.4l-2.76 17.5Z"/>
    <path fill="#F2EFE7" d="M280.43 327.7h-11.26l2.76-17.5h5.53l-2.03 12.78h5.74l-.74 4.71Z"/>
    <path fill="#F2EFE7" d="m293.98 320.84-1.07 6.85h-5.55l1.09-6.85-4.18-10.65h6.16l1.55 5.83 3.4-5.83h6.16l-7.56 10.65Z"/>
    <path fill="#F2EFE7" d="m243.53 141.36-1.87 5.05a20.85 20.85 0 1 1-11.34-3.07l1.93-5.25h-1.51a26.2 26.2 0 1 0 12.79 3.32v-.05Zm53.74-3.33h-1.5l1.97 5.3a20.84 20.84 0 1 1-11.34 3.07l-1.87-5.04a26.14 26.14 0 1 0 12.74-3.32v-.01Z"/>
    <path fill="#F2EFE7" d="M297.27 161.52c-1.1 0-2.1-.68-2.5-1.72l-14.44-38.82-13.94 28.38a2.65 2.65 0 0 1-4.78 0l-13.93-28.38-14.45 38.82a2.66 2.66 0 1 1-5-1.87l16.65-44.59a2.65 2.65 0 0 1 4.89-.25l14.24 29.1 14.24-29.1a2.65 2.65 0 0 1 4.88.26l16.64 44.6a2.65 2.65 0 0 1-2.5 3.58v-.01Z"/>
    <path stroke="#F2EFE7" stroke-linecap="round" stroke-linejoin="round" stroke-width="3" d="M2.08 388.78h523.84"/>
    <path stroke="#F2EFE7" stroke-linecap="round" stroke-linejoin="round" stroke-width="3" d="M2.08 502.42h523.84"/>
    <path fill="#F2EFE7" d="M74.2 450.58c-5.64 0-9-3.16-9.94-4.53l2.92-3.79c1.1 1.34 4.03 3.4 6.66 3.4 2.64 0 4.78-1.39 4.78-3.83 0-2.45-1.9-3.67-4.34-3.67h-2.4v-4.45h2.4c2.13 0 3.63-1.07 3.63-3.2s-1.77-3.19-3.95-3.19c-2.17 0-4.3.87-6.5 2.64l-2.37-4.02c1.9-1.66 4.42-3.4 9.39-3.4 4.97 0 9.47 2.69 9.47 7.26 0 3.63-2.1 5.21-3.9 5.96v.12a6.43 6.43 0 0 1 4.76 6.3c0 5.45-5 8.4-10.6 8.4Z"/>
    <path fill="#F2EFE7" d="M27.34 465.78H26.1v3.63h-3.82v-11.66h5.07c2.64 0 4.57 1.18 4.57 4.02s-1.94 4.01-4.57 4.01Zm-.64-5.15h-.63v2.28h.63c.8 0 1.35-.24 1.35-1.13 0-.9-.58-1.15-1.35-1.15Z"/>
    <path fill="#F2EFE7" d="m42.55 469.41-.45-1.64h-3.33l-.44 1.64h-3.97l4.06-11.66h4.22l4.06 11.66h-4.14Zm-2.1-7.69-.87 3.13h1.73l-.86-3.13Z"/>
    <path fill="#F2EFE7" d="M55.65 469.62c-3.46 0-6.25-2.13-6.25-6.02 0-3.89 2.8-6.02 6.25-6.02 2.62 0 3.9 1.1 3.9 1.1l-1.02 3.21s-1.19-1.01-2.62-1.01c-1.43 0-2.67.84-2.67 2.67s1.32 2.62 2.67 2.62a3.9 3.9 0 0 0 2.8-1.07l1.09 3.04c-.42.42-1.6 1.47-4.14 1.47Z"/>
    <path fill="#F2EFE7" d="m69.6 469.41-1.94-3.89-.68.84v3.04h-3.8v-11.66h3.8v3.54l2.45-3.54h4.48l-3.77 4.7 4.03 6.95H69.6v.02Z"/>
    <path fill="#F2EFE7" d="m84.4 469.41-.46-1.64H80.6l-.44 1.64H76.2l4.05-11.66h4.22l4.06 11.66H84.4Zm-2.12-7.69-.86 3.13h1.73l-.86-3.13Z"/>
    <path fill="#F2EFE7" d="M97.4 469.6c-3.12 0-6.17-1.88-6.17-6.02 0-4.13 3.04-6 6.25-6s4.57 1.7 4.9 2.03l-2.53 2.11c-.25-.25-1-1.01-2.37-1.01-1.35 0-2.42 1.01-2.42 2.87 0 1.87 1.07 2.88 2.42 2.88 1.36 0 1.6-.42 1.6-.42v-.84h-1.77v-2.83h5.5v5.11c-.93.84-2.29 2.13-5.41 2.13v-.01Z"/>
    <path fill="#F2EFE7" d="M106.79 469.41v-11.66h8.28v3.01h-4.48v1.27h4.23v2.99h-4.23v1.35h4.65v3.04h-8.45Z"/>
    <path fill="#F2EFE7" d="M126.23 468.62c-.92.71-2.1 1-3.45 1a7.37 7.37 0 0 1-4.5-1.56l1.7-2.87c1.08.9 2.6 1.27 3.1 1.27s.86-.16.86-.49c0-.34-.42-.47-.85-.61-.42-.12-1.35-.42-1.7-.54-1.61-.64-2.66-1.4-2.66-3.35a3.7 3.7 0 0 1 1.35-2.82 5.36 5.36 0 0 1 3.43-1.01c1.55 0 3.14.55 4.16 1.4l-1.45 2.7a4.8 4.8 0 0 0-2.78-1.12c-.6 0-.94.12-.94.48 0 .35.54.45.8.53.28.1.98.29 1.39.43 1.76.59 3.04 1.46 3.04 3.5 0 1.23-.6 2.32-1.52 3.04l.02.02Z"/>
    <path stroke="#F2EFE7" stroke-linecap="round" stroke-linejoin="round" stroke-width="3" d="M151.45 404.75v81.7"/>
    <path stroke="#F2EFE7" stroke-linecap="round" stroke-linejoin="round" stroke-width="3" d="M335.54 404.75v81.7"/>
    <path fill="#F2EFE7" d="M360.82 451.2c-3.47 0-6.25-2.13-6.25-6.02 0-3.89 2.8-6.01 6.25-6.01 2.62 0 3.89 1.1 3.89 1.1l-1.01 3.2s-1.19-1-2.62-1c-1.44 0-2.67.84-2.67 2.66 0 1.82 1.32 2.62 2.67 2.62a3.9 3.9 0 0 0 2.79-1.07l1.1 3.04c-.42.42-1.6 1.47-4.14 1.47Z"/>
    <path fill="#F2EFE7" d="M374.18 451.2c-3.63 0-6.34-2.22-6.34-6.02 0-3.8 2.7-6.03 6.34-6.03 3.63 0 6.33 2.23 6.33 6.03 0 3.8-2.7 6.02-6.33 6.02Zm0-8.82c-1.52 0-2.5 1.11-2.5 2.72 0 1.6.98 2.72 2.5 2.72s2.48-1.12 2.48-2.72-.96-2.73-2.48-2.73Z"/>
    <path fill="#F2EFE7" d="m394.26 451-.14-6.69-1.52 6.68h-3.3l-1.52-6.68-.13 6.68h-3.75l.67-11.65h4.9l1.47 6.33 1.49-6.33h4.9l.68 11.65h-3.75Z"/>
    <path fill="#F2EFE7" d="M406.97 447.36h-1.25V451h-3.82v-11.65h5.07c2.63 0 4.57 1.18 4.57 4.02s-1.94 4.01-4.57 4.01Zm-.64-5.15h-.63v2.29h.63c.8 0 1.34-.24 1.34-1.14 0-.9-.57-1.15-1.34-1.15Z"/>
    <path fill="#F2EFE7" d="M415 451v-11.66h8.29v3h-4.48v1.27h4.22v3h-4.22v1.34h4.64V451H415Z"/>
    <path fill="#F2EFE7" d="m434.52 451-3.54-6.51s.08 1.27.08 2.1v4.4h-3.71v-11.65h4.14l3.38 6.5s-.09-1.27-.09-2.1v-4.4h3.72v11.65h-3.98Z"/>
    <path fill="#F2EFE7" d="M449.82 450.2c-.93.72-2.1 1-3.45 1a7.36 7.36 0 0 1-4.5-1.56l1.7-2.87a5.9 5.9 0 0 0 3.1 1.27c.5 0 .86-.15.86-.49 0-.33-.42-.47-.84-.6l-1.7-.55c-1.62-.64-2.66-1.4-2.66-3.35 0-1.27.66-2.25 1.35-2.82a5.36 5.36 0 0 1 3.44-1.01c1.55 0 3.14.55 4.15 1.4l-1.45 2.7a4.8 4.8 0 0 0-2.77-1.12c-.61 0-.94.12-.94.48 0 .35.54.45.81.54.27.08.98.28 1.38.42 1.76.59 3.04 1.47 3.04 3.5 0 1.23-.6 2.32-1.52 3.05v.01Z"/>
    <path fill="#F2EFE7" d="m462.08 451-.45-1.65h-3.34l-.43 1.64h-3.98l4.05-11.65h4.23l4.06 11.65h-4.14Zm-2.11-7.7-.86 3.13h1.72l-.85-3.13h-.01Z"/>
    <path fill="#F2EFE7" d="M475.14 442.3v8.7h-3.81v-8.7h-2.74v-2.96h9.31v2.97h-2.75Z"/>
    <path fill="#F2EFE7" d="M481.28 451v-11.66h3.82v11.65h-3.82Z"/>
    <path fill="#F2EFE7" d="M495.15 451.2c-3.63 0-6.33-2.22-6.33-6.02 0-3.8 2.7-6.03 6.33-6.03 3.64 0 6.34 2.23 6.34 6.03 0 3.8-2.7 6.02-6.34 6.02Zm0-8.82c-1.51 0-2.5 1.11-2.5 2.72 0 1.6.99 2.72 2.5 2.72 1.52 0 2.49-1.12 2.49-2.72s-.97-2.73-2.49-2.73Z"/>
    <path fill="#F2EFE7" d="m512.4 451-3.54-6.51s.08 1.27.08 2.1v4.4h-3.72v-11.65h4.14l3.38 6.5s-.08-1.27-.08-2.1v-4.4h3.72v11.65h-3.98Z"/>
    <path fill="#F2EFE7" d="M208.65 416.5v8.7h-3.82v-8.7h-2.74v-2.97h9.31v2.98h-2.75Z"/>
    <path fill="#F2EFE7" d="M219.77 425.4c-3.63 0-6.33-2.22-6.33-6.02 0-3.8 2.7-6.03 6.33-6.03s6.34 2.23 6.34 6.03c0 3.8-2.7 6.02-6.34 6.02Zm0-8.82c-1.52 0-2.5 1.11-2.5 2.72 0 1.6.98 2.72 2.5 2.72s2.48-1.12 2.48-2.72-.96-2.73-2.48-2.73Z"/>
    <path fill="#F2EFE7" d="M234.7 416.5v8.7h-3.82v-8.7h-2.74v-2.97h9.32v2.98h-2.76Z"/>
    <path fill="#F2EFE7" d="m247.18 425.2-.46-1.65h-3.33l-.44 1.64h-3.97l4.05-11.66h4.22l4.05 11.66h-4.13Zm-2.12-7.7-.85 3.13h1.72l-.86-3.13Z"/>
    <path fill="#F2EFE7" d="M253.68 425.2v-11.67h3.8v8.53h3.98v3.12h-7.78v.01Z"/>
    <path fill="#F2EFE7" d="M269.15 425.2v-11.67h3.8v8.53h3.98v3.12h-7.78v.01Z"/>
    <path fill="#F2EFE7" d="M285.46 425.4c-3.63 0-6.33-2.22-6.33-6.02 0-3.8 2.7-6.03 6.33-6.03s6.34 2.23 6.34 6.03c0 3.8-2.7 6.02-6.34 6.02Zm0-8.82c-1.52 0-2.5 1.11-2.5 2.72 0 1.6.98 2.72 2.5 2.72s2.48-1.12 2.48-2.72-.96-2.73-2.48-2.73Z"/>
    <path fill="#F2EFE7" d="M301.77 424.4c-.93.72-2.1 1-3.45 1a7.36 7.36 0 0 1-4.5-1.55l1.7-2.88a5.9 5.9 0 0 0 3.1 1.27c.5 0 .86-.15.86-.49 0-.33-.42-.47-.84-.6l-1.7-.55c-1.62-.64-2.66-1.4-2.66-3.35 0-1.27.66-2.25 1.35-2.82a5.36 5.36 0 0 1 3.44-1.01c1.55 0 3.14.56 4.15 1.4l-1.45 2.7a4.8 4.8 0 0 0-2.77-1.12c-.61 0-.95.12-.95.48 0 .35.54.45.82.54.26.08.98.28 1.38.42 1.76.59 3.04 1.47 3.04 3.5 0 1.23-.6 2.33-1.52 3.05v.01Z"/>
    <path fill="#F2EFE7" d="M313.1 424.4c-.93.72-2.1 1-3.45 1a7.36 7.36 0 0 1-4.5-1.55l1.7-2.88a5.9 5.9 0 0 0 3.1 1.27c.5 0 .86-.15.86-.49 0-.33-.42-.47-.84-.6l-1.7-.55c-1.62-.64-2.66-1.4-2.66-3.35 0-1.27.66-2.25 1.35-2.82a5.36 5.36 0 0 1 3.44-1.01c1.55 0 3.14.56 4.15 1.4l-1.45 2.7a4.8 4.8 0 0 0-2.77-1.12c-.61 0-.94.12-.94.48 0 .35.54.45.81.54.27.08.98.28 1.38.42 1.76.59 3.04 1.47 3.04 3.5 0 1.23-.6 2.33-1.52 3.05v.01Z"/>
    <path fill="#F2EFE7" d="M209.94 451.11v-4.3h-3.18v4.3h-3.82v-11.66h3.82v4.22h3.18v-4.22h3.82v11.66h-3.82Z"/>
    <path fill="#F2EFE7" d="m224.31 451.11-.45-1.64h-3.33l-.44 1.64h-3.97l4.06-11.66h4.22l4.06 11.66h-4.14Zm-2.1-7.69-.87 3.13h1.73l-.86-3.13Z"/>
    <path fill="#F2EFE7" d="M230.83 451.11v-11.66h3.8v8.53h3.98v3.12h-7.78v.01Z"/>
    <path fill="#F2EFE7" d="M245.12 442.46v1.81h4.06v3h-4.06v3.84h-3.8v-11.66h8.1v3.01h-4.3Z"/>
    <path fill="#F2EFE7" d="M257.29 451.11v-11.66h3.8v8.53h3.97v3.12h-7.77v.01Z"/>
    <path fill="#F2EFE7" d="M273.6 451.32c-3.63 0-6.34-2.22-6.34-6.02 0-3.8 2.7-6.03 6.34-6.03 3.63 0 6.33 2.23 6.33 6.03 0 3.8-2.7 6.02-6.33 6.02Zm0-8.82c-1.52 0-2.5 1.11-2.5 2.72 0 1.6.98 2.72 2.5 2.72s2.48-1.12 2.48-2.72-.96-2.72-2.48-2.72Z"/>
    <path fill="#F2EFE7" d="M289.9 450.31c-.92.72-2.09 1-3.44 1a7.37 7.37 0 0 1-4.5-1.55l1.69-2.88a5.91 5.91 0 0 0 3.1 1.27c.51 0 .87-.15.87-.49 0-.33-.43-.47-.85-.6l-1.69-.55c-1.62-.64-2.67-1.4-2.67-3.34 0-1.28.66-2.25 1.36-2.83a5.36 5.36 0 0 1 3.43-1.01c1.56 0 3.15.56 4.16 1.4l-1.45 2.7a4.8 4.8 0 0 0-2.78-1.12c-.6 0-.94.13-.94.48s.54.45.82.54c.26.08.97.28 1.38.42 1.76.6 3.04 1.47 3.04 3.5 0 1.23-.6 2.33-1.52 3.05v.01Z"/>
    <path fill="#F2EFE7" d="M301.23 450.31c-.93.72-2.1 1-3.45 1a7.37 7.37 0 0 1-4.5-1.55l1.7-2.88a5.91 5.91 0 0 0 3.1 1.27c.5 0 .86-.15.86-.49 0-.33-.42-.47-.84-.6l-1.7-.55c-1.62-.64-2.66-1.4-2.66-3.34 0-1.28.66-2.25 1.35-2.83a5.36 5.36 0 0 1 3.44-1.01c1.55 0 3.14.56 4.15 1.4l-1.45 2.7a4.8 4.8 0 0 0-2.77-1.12c-.61 0-.95.13-.95.48s.54.45.82.54c.26.08.98.28 1.38.42 1.76.6 3.04 1.47 3.04 3.5 0 1.23-.6 2.33-1.52 3.05v.01Z"/>
    <path fill="#F2EFE7" d="M208.65 468.34v8.68h-3.82v-8.68h-2.74v-2.98h9.31v2.98h-2.75Z"/>
    <path fill="#F2EFE7" d="M220.94 477.02v-4.3h-3.17v4.3h-3.82v-11.65h3.82v4.22h3.17v-4.22h3.82v11.65h-3.82Z"/>
    <path fill="#F2EFE7" d="M228.14 477.02v-11.65h8.29v3h-4.48v1.27h4.22v2.99h-4.22v1.35h4.64v3.04h-8.45Z"/>
    <path fill="#F2EFE7" d="M243.44 468.37v1.81h4.06v3h-4.06v3.84h-3.8v-11.65h8.11v3h-4.3Z"/>
    <path fill="#F2EFE7" d="M256.33 468.34v8.68h-3.82v-8.68h-2.73v-2.98h9.31v2.98h-2.76Z"/>
    <path stroke="#F2EFE7" stroke-linecap="round" stroke-miterlimit="10" stroke-width="3" d="M188.16 422.22v1.5a3.16 3.16 0 0 1-3.16 3.15h-9.77a3.16 3.16 0 0 1-3.16-3.15v-9.77a3.16 3.16 0 0 1 3.16-3.16H185a3.16 3.16 0 0 1 3.16 3.16v.69"/>
    <path stroke="#F2EFE7" stroke-linecap="round" stroke-linejoin="round" stroke-width="3" d="m177.55 416.6 3.44 3.97 10.97-8.38"/>
    <path stroke="#F2EFE7" stroke-linecap="round" stroke-miterlimit="10" stroke-width="3" d="M188.16 448.46v1.5a3.16 3.16 0 0 1-3.16 3.15h-9.77a3.16 3.16 0 0 1-3.16-3.16v-9.76a3.16 3.16 0 0 1 3.16-3.16H185a3.16 3.16 0 0 1 3.16 3.16v.68"/>
    <path stroke="#F2EFE7" stroke-linecap="round" stroke-linejoin="round" stroke-width="3" d="m177.55 442.82 3.44 3.98 10.97-8.38"/>
    <path stroke="#F2EFE7" stroke-linecap="round" stroke-miterlimit="10" stroke-width="3" d="M188.16 474.69v1.5a3.16 3.16 0 0 1-3.16 3.15h-9.77a3.16 3.16 0 0 1-3.16-3.16v-9.76a3.16 3.16 0 0 1 3.16-3.16H185a3.16 3.16 0 0 1 3.16 3.16v.68"/>
    <path stroke="#F2EFE7" stroke-linecap="round" stroke-linejoin="round" stroke-width="3" d="m177.55 469.05 3.44 3.98 10.97-8.38"/>
    <path fill="#F2EFE7" d="M119.26 99.68 93.84 75.65l7.87-8.33 25.42 24.04-7.87 8.32Z"/>
    <path fill="#F2EFE7" d="m153.37 69.47-20.14-9.43s2.45 2.91 3.96 4.96l7.8 10.62-9 6.6-20.7-28.2 10.02-7.34 19.72 9.73s-2.45-2.91-3.96-4.96l-7.8-10.62 9-6.6 20.7 28.2-9.6 7.04Z"/>
    <path fill="#F2EFE7" d="M190.62 46.42c-1.64 3.1-4.46 5.35-8.14 7.05-3.69 1.7-8.4 2.64-14.21 1.4l1-9.95c4.1 1.14 8.7.2 10.07-.44 1.38-.64 2.16-1.5 1.74-2.42-.42-.92-1.75-.76-3.07-.6-1.3.2-4.21.54-5.29.64-5.22.28-9.03-.47-11.47-5.77a11.07 11.07 0 0 1 .14-9.39c1.2-2.5 3.84-5.11 8.08-7.07 4.24-1.95 9.27-2.42 13.1-1.4l-.57 9.2a14.5 14.5 0 0 0-8.96.44c-1.66.76-2.43 1.5-1.98 2.48.42.92 2.04.57 2.9.45.84-.1 3.02-.44 4.3-.58 5.54-.6 10.14.19 12.7 5.77a11.59 11.59 0 0 1-.32 10.2h-.02Z"/>
    <path fill="#F2EFE7" d="M228.13 34.19c-1.85 3.07-5.4 5.57-10.82 6.91-5.42 1.35-9.73.8-12.8-1.05-3.07-1.86-5.1-4.75-6.44-10.16l-4.82-19.44 11.18-2.77 4.94 19.93c.72 2.9 2.4 4.63 5.55 3.85 3.16-.79 3.78-3.09 3.06-5.99l-4.94-19.93 11.22-2.78 4.82 19.44c1.35 5.42.91 8.92-.95 12v-.01Z"/>
    <path fill="#F2EFE7" d="m260.35 34.85-6.04-11.43-1.47.06.47 11.65-11.45.46L240.44.64l15.2-.62c4.32-.17 7.64.45 10.24 2.12 2.6 1.67 4.5 4.63 4.65 8.43.29 7.1-3.91 9.8-5.4 10.78l8.39 12.95-13.18.53.01.02Zm-2.71-25.61c-.52-.4-1.3-.61-2.56-.56l-2.88.12.25 6.07 2.88-.12c1.97-.07 3.77-.9 3.67-3.19-.06-1.52-.84-1.99-1.36-2.32Z"/>
    <path fill="#F2EFE7" d="m301.02 38.3-.56-5.08-9.87-1.58-2.08 4.64-11.77-1.9 17.57-32.6 12.52 2.01 6.45 36.48-12.26-1.97Zm-2.59-23.79-4.04 8.85 5.1.83-1.06-9.68Z"/>
    <path fill="#F2EFE7" d="m341.24 50.8-2.53-22.09s-1.2 3.62-2.15 5.96l-4.95 12.22-10.34-4.2 13.16-32.42 11.5 4.67 2.07 21.9s1.19-3.62 2.14-5.97l4.96-12.21 10.33 4.2-13.15 32.41-11.04-4.48v.01Z"/>
    <path fill="#F2EFE7" d="M373.69 69.58c-8.66-5.75-12.1-15.7-5.66-25.41 6.45-9.72 16.96-10.42 25.62-4.67 6.55 4.34 7.9 9.19 7.9 9.19l-7.87 6.34s-1.28-4.5-4.87-6.88c-3.58-2.39-8.07-2.32-11.1 2.25-3 4.52-1.05 8.74 2.33 10.98s6.63 2.39 8.74 1.96l-2.3 9.43c-1.76.35-6.46 1-12.8-3.2v.01Z"/>
    <path fill="#F2EFE7" d="m390.46 81.32 24.42-25.06 17.8 17.34-6.3 6.46-9.62-9.38-2.66 2.72 9.08 8.85-6.26 6.43-9.08-8.85-2.84 2.9 10 9.73-6.37 6.54-18.17-17.69v.01Z"/>
  </g>
  <defs>
    <clipPath id="a">
      <path fill="#fff" d="M.5 0h527v504H.5z"/>
    </clipPath>
  </defs>
</svg>